<svg xmlns="http://www.w3.org/2000/svg" viewBox="0 0 167.39 93.22"><defs><style>.cls-1{fill:#9c1421;}</style></defs><g id="Layer_2" data-name="Layer 2"><g id="Layer_1-2" data-name="Layer 1"><path class="cls-1" d="M17.24,66.75c-.19-3.72,1.35-6.61-4.07-6v7.63C14.88,68.31,17.25,68.75,17.24,66.75Zm2,12.82h-2V71.39c0-2-2.36-1.57-4.07-1.65v9.83h-2V59.43c2.2.25,7.38-.9,8,1.88-.48,2.49,1.71,7.88-3,7.76C21.19,68.8,18.63,77,19.22,79.57Z"/><path class="cls-1" d="M30.28,60V77.11c0,1.2-1.28,2.59-3.84,2.59s-3.84-1.39-3.84-2.59V59.43h2V76.75c0,1.37.38,1.52,1.86,1.62q1.86,0,1.86-1.62V59.43h1.92l.12-.21h-.53v-.68H31v.68Z"/><path class="cls-1" d="M38.36,81.21H36.5v-.94h1.86Zm1-4.46c-.07-.37.19-15.71-.17-15.55-.79-.86-3.89-1-3.55,1V76.75C35.15,79,39.65,78.9,39.35,76.75Zm1.06-16.89.57-.64h-.52v-.68h1.22v.68l-1,.9c1.17-.16.41,16.3.61,17,.41,3.28-8.08,3.3-7.68,0V61.62C33.24,59.42,38.75,58.65,40.41,59.86Z"/><path class="cls-1" d="M52.38,77.11c.41,3.29-8.08,3.29-7.68,0V59.43h2V76.75c0,1.33.48,1.55,1.86,1.62s1.87-.54,1.87-1.62V59.43h2Z"/><path class="cls-1" d="M156.53,77.11c.41,3.29-8.08,3.29-7.68,0V59.43h2V76.75c0,1.33.48,1.55,1.86,1.62s1.87-.54,1.87-1.62V59.43h2Z"/><polygon class="cls-1" points="70.83 79.57 68.97 79.57 68.97 75.59 64.66 64.2 64.66 79.57 62.8 79.57 62.8 59.43 64.6 59.43 68.97 71.42 68.97 59.43 70.83 59.43 70.83 79.57"/><polygon class="cls-1" points="82.35 79.57 80.37 79.57 80.37 70.19 76.3 70.19 76.3 79.57 74.32 79.57 74.32 59.43 76.3 59.43 76.3 68.73 80.37 68.73 80.37 59.43 82.35 59.43 82.35 79.57"/><path class="cls-1" d="M90.79,81H88.92V80h1.87Zm1.1-12.31c-.48-1.81,1.52-8.55-2.15-8-3.41-.49-1.42,6.44-1.92,8Zm.3-9.82a4,4,0,0,1-2.33-.55,3.41,3.41,0,0,1-2.28.55C90.1,57.31,89.67,57.38,92.19,58.85Zm1.68,20.72h-2V70.13H87.82v9.44h-2V61.62c0-1.2,1.3-2.33,3.9-2.33,2.75,0,4.13,1.13,4.13,2.33Z"/><path class="cls-1" d="M143.44,68.67c-.47-1.81,1.52-8.55-2.15-8-3.41-.49-1.42,6.44-1.92,8Zm.3-9.82a4,4,0,0,1-2.33-.55,3.41,3.41,0,0,1-2.28.55C141.65,57.31,141.23,57.38,143.74,58.85Zm1.68,20.72h-2V70.13h-4.07v9.44h-2V61.62c0-1.2,1.3-2.33,3.9-2.33,2.75,0,4.13,1.13,4.13,2.33Z"/><path class="cls-1" d="M103.41,69.75V62.21c0-2-2.44-1.46-4.07-1.57V71.21C101,71.07,103.38,71.74,103.41,69.75Zm2,.23c0,3-3.79,2.68-6,2.67v6.92h-2V59.43C108,58.61,105,62,105.39,70Z"/><polygon class="cls-1" points="124.13 79.57 121.83 79.57 117.44 69.67 117.44 79.57 115.46 79.57 115.46 59.43 117.44 59.43 117.44 67.79 121.51 59.43 123.14 59.43 118.95 68.23 124.13 79.57"/><polygon class="cls-1" points="133.9 79.57 131.92 79.57 131.92 70.19 127.85 70.19 127.85 79.57 125.87 79.57 125.87 59.43 127.85 59.43 127.85 68.73 131.92 68.73 131.92 59.43 133.9 59.43 133.9 79.57"/><path class="cls-1" d="M146.37,55.92v.51l-1.13,1.48v.77h-.6v-.89l1.09-1.43v-1c.08-.69-1.34-.65-1.25,0v.92h-.65V54.94c-.16-.83,2.73-.88,2.55,0Z"/><polygon class="cls-1" points="167.39 46.59 167.39 90.3 137.65 90.3 137.65 89 166.09 89 166.09 47.89 115.7 47.89 115.7 46.59 167.39 46.59"/><polygon class="cls-1" points="1.3 47.89 1.3 89 29.99 89 29.99 90.3 0 90.3 0 46.59 52.56 46.59 52.56 47.89 1.3 47.89"/><path class="cls-1" d="M92.36,24.39v1.14C87.47,27.78,90.18,45,89.5,49H78.4c-.65-4.1,2.08-21-2.78-23.38-1.06-4.71,5.33-7.13,5.5-9.91V3.59a.44.44,0,0,1-.55-.39c.1-.41-.32-2,.55-1.8,0-.51-.08-1.35.63-1.4h4.67a.5.5,0,0,1,.41.34s0,1,0,1.06c.87-.19.45,1.39.54,1.8a.43.43,0,0,1-.54.39C86.46,25.14,87,11.59,92.36,24.39Z"/><path class="cls-1" d="M105.17,30.38V49H92.35V25.53c1.21-1.11,2.35-2.08,2.35-3.25V11c-.82.18-.43-1.29-.51-1.67s.26-.4.51-.36c0-.48-.07-1.29.6-1.31.1,0,4.32,0,4.4,0h0A.43.43,0,0,1,100,8h0s0,.93,0,1c.81-.19.42,1.28.51,1.67s-.27.39-.51.36C99.69,30.93,100,18.39,105.17,30.38Z"/><path class="cls-1" d="M75.62,49H62.8V30.38c0-4,5.14-5.6,5.14-8.1V11c-.82.18-.43-1.29-.51-1.67s.26-.4.51-.36c0-.48-.07-1.29.6-1.31.1,0,4.32,0,4.4,0h0a.44.44,0,0,1,.31.32s0,.93,0,1c.81-.19.42,1.28.51,1.67s-.27.39-.51.36V22.28c0,1.15,1.14,2.16,2.35,3.32Z"/><path class="cls-1" d="M43.43,88.71c.06-1.22-.94-1.77-2-1.6,0,.09-.88,3.78-.88,3.85C41.45,92.53,43.76,90.14,43.43,88.71Zm.8,0c.07,2.85-3.11,3.18-5.26,3l.05-.22c1.16.4,1.22-3.4,1.56-3.89.15-.37-.24-.48-.52-.5l0-.23C41.57,86.83,44.3,86.51,44.23,88.71Z"/><path class="cls-1" d="M46.94,88.86c-.38-1.14-1.65.41-1.6,1.19C46,90,47,89.73,46.94,88.86Zm.62.09c0,1.07-1.39,1.2-2.24,1.34-.13,1.33,1.33,1.4,1.9.43l.19.14c-1,1.72-3.49.76-2.63-1.2C45,88.51,47.24,87.46,47.56,89Z"/><path class="cls-1" d="M49.86,86.45c.15.59-2.09,5.62-.27,4.86l-.05.22c-3.49,1.51.91-4.74-1-4.85l0-.21,1.27-.07Z"/><path class="cls-1" d="M52,87a.43.43,0,1,1-.86,0A.43.43,0,1,1,52,87Zm-.24,4.36-.05.22c-3.15,1.39.52-3.36-1.58-2.84l.05-.22C53.34,87.05,49.64,91.83,51.78,91.31Z"/><path class="cls-1" d="M55.63,88.87c.48,1.81-2.94,4.55-3,1.69.09-.56,1-2.31-.32-1.82l.05-.22c2-1,1.07,1.29.88,2.3.37,1.49,2.15-.25,1.94-1.23,0-.44-.37-.55-.36-1C54.87,88,55.75,88.23,55.63,88.87Z"/><path class="cls-1" d="M58.48,88.86c-.38-1.14-1.65.41-1.6,1.19C57.58,90,58.53,89.73,58.48,88.86Zm.63.09c0,1.07-1.39,1.2-2.25,1.34-.12,1.33,1.34,1.4,1.9.43l.2.14c-1,1.72-3.5.76-2.64-1.2C56.51,88.51,58.79,87.46,59.11,89Z"/><path class="cls-1" d="M62.6,88.79c0,.95-1.25.61-.66-.2-1.24,0-1.33,2.32-1.57,3.09h-.64c-.07-.58,1.4-3.52-.11-3l.05-.22c.51-.26,1.37-.47,1.33.36h0C61.51,88.34,62.53,87.79,62.6,88.79Z"/><path class="cls-1" d="M65.13,91.19h0c-4,2.38-.18-3.25-2.23-2.45l0-.22c3.1-1.62-.89,4.56,2.26,2.36l.56-2.55.59,0,0,0c-.46,1.73-.54,5.41-3.2,4.81-1.15-.42.27-1.37.46-.18C64.56,93,65,92,65.13,91.19Z"/><path class="cls-1" d="M74,88.87c.24,1.51-1.84,4.2-3,2.25-.57.87-2.23.93-2-.4,0-.59,1-2.46-.29-2l0-.22c2.39-1.11.57,1.77,1,2.73,1.44.88,1.57-2.23,1.83-2.92l.59,0,0,0c-.06.32-.54,2.23-.55,2.51.17,1.19,1.67.18,1.8-.58.32-.61-.08-1.09-.25-1.64C73.25,88,74.13,88.23,74,88.87Z"/><path class="cls-1" d="M76.45,87a.43.43,0,1,1-.86,0A.43.43,0,1,1,76.45,87Zm-.24,4.36,0,.22c-3.15,1.39.52-3.36-1.58-2.84l0-.22C77.77,87.05,74.07,91.84,76.21,91.31Z"/><path class="cls-1" d="M80.43,91.28l-.05.22c-2.07,1-1.08-1.34-.89-2.36,0-.86-1-.43-1.38,0l-.58,2.51h-.64c-.07-.58,1.42-3.52-.11-3l.06-.22c.49-.25,1.34-.47,1.33.32h0C82.29,86.41,78.24,92.08,80.43,91.28Z"/><path class="cls-1" d="M83.27,88.86c-.38-1.14-1.65.41-1.59,1.19C82.37,90,83.32,89.73,83.27,88.86Zm.63.09c0,1.07-1.39,1.2-2.25,1.34-.12,1.33,1.34,1.4,1.91.43l.19.14c-1,1.72-3.5.76-2.64-1.2C81.3,88.51,83.58,87.46,83.9,89Z"/><path class="cls-1" d="M87,91.75c-1.38.09,0-2.48-.06-3.09H86.3l.07-.31H87l.24-1h.62l-.23,1h.94l-.07.31h-.94c0,.72-1.33,3.26.42,2.62l-.06.25A2.31,2.31,0,0,1,87,91.75Z"/><path class="cls-1" d="M91.29,89.45c-.18-2.18-2.23-.2-1.9,1.1C89.56,92.75,91.63,90.77,91.29,89.45Zm.7.13c.28,2-3.16,3.34-3.3.85C88.4,88.46,91.86,87.12,92,89.58Z"/><path class="cls-1" d="M96.56,91.19h0c-4,2.38-.18-3.25-2.23-2.45l.06-.22c3.09-1.62-.9,4.56,2.25,2.36l.56-2.55.59,0,0,0c-.42,1.78-.7,5.78-3.47,4.7-.62-.77.66-.92.73-.07C96,93,96.4,92,96.56,91.19Z"/><path class="cls-1" d="M101,89.45c-.18-2.18-2.23-.2-1.9,1.1C99.22,92.75,101.29,90.77,101,89.45Zm.7.13c.28,2-3.16,3.34-3.3.85C98.07,88.46,101.52,87.12,101.65,89.58Z"/><path class="cls-1" d="M104.4,91.2h0c-3.89,2.4-.14-3.27-2.18-2.46l0-.22c3.07-1.63-.87,4.56,2.21,2.38l.59-2.57.6,0,0,0c.07.6-1.42,3.51.13,3l0,.22C105.26,91.75,104.42,92,104.4,91.2Z"/><path class="cls-1" d="M109.36,88.79c0,.95-1.25.61-.66-.2-1.24,0-1.33,2.32-1.57,3.09h-.64c-.07-.58,1.4-3.52-.12-3l.06-.22c.51-.26,1.37-.47,1.32.36h0C108.26,88.34,109.29,87.79,109.36,88.79Z"/><path class="cls-1" d="M115,91.28l0,.22c-2.07,1-1.08-1.34-.89-2.36,0-.87-1.05-.42-1.38,0l-.58,2.51h-.64c-.13-.49,1.88-5.33.5-5l0-.21,1.27-.07,0,0-.55,2.36h0C116.78,86.42,112.77,92,115,91.28Z"/><path class="cls-1" d="M118.09,89.45c-.19-2.18-2.24-.2-1.91,1.1C116.35,92.75,118.43,90.77,118.09,89.45Zm.69.13c.29,2-3.15,3.34-3.29.85C115.2,88.46,118.66,87.12,118.78,89.58Z"/><path class="cls-1" d="M125.06,91.29l0,.22c-2.45,1-.62-1.73-1-2.74-1.42-.86-1.6,2.2-1.86,2.91h-.63c0-.61,1.45-3.64-.27-2.94-.72,0-1,2.49-1.13,2.94h-.64c-.06-.58,1.42-3.54-.1-3l0-.22c.5-.25,1.35-.47,1.34.32h0c.57-.56,1.78-1,2,0h0C126.86,86.33,122.91,92.08,125.06,91.29Z"/><path class="cls-1" d="M127.9,88.86c-.38-1.14-1.65.41-1.6,1.19C127,90,127.94,89.73,127.9,88.86Zm.63.09c-.05,1.07-1.4,1.2-2.25,1.34-.12,1.33,1.33,1.4,1.9.43l.2.14c-1,1.72-3.5.76-2.64-1.2C125.92,88.51,128.2,87.46,128.53,89Z"/></g></g></svg>